<svg width="24" height="24" viewBox="0 0 24 24" fill="none" xmlns="http://www.w3.org/2000/svg">
<g id="badge_view">
<path id="Ellipse 3" d="M23.5 12C23.5 18.3513 18.3513 23.5 12 23.5C5.64873 23.5 0.5 18.3513 0.5 12C0.5 5.64873 5.64873 0.5 12 0.5C18.3513 0.5 23.5 5.64873 23.5 12Z" fill="white" stroke="#D7D7D7"/>
<g id="Vector">
<path fill-rule="evenodd" clip-rule="evenodd" d="M6.55256 12C6.61604 12.1291 6.71087 12.3138 6.83597 12.5357C7.09039 12.9871 7.46669 13.5866 7.95499 14.1834C8.94647 15.3952 10.3185 16.5 11.9998 16.5C13.6812 16.5 15.0532 15.3952 16.0447 14.1834C16.533 13.5866 16.9093 12.9871 17.1637 12.5357C17.2888 12.3138 17.3836 12.1291 17.4471 12C17.3836 11.8709 17.2888 11.6862 17.1637 11.4643C16.9093 11.0129 16.533 10.4134 16.0447 9.81662C15.0532 8.6048 13.6812 7.5 11.9998 7.5C10.3185 7.5 8.94647 8.6048 7.95499 9.81662C7.46669 10.4134 7.09039 11.0129 6.83597 11.4643C6.71087 11.6862 6.61604 11.8709 6.55256 12ZM17.9998 12C18.4581 11.8 18.458 11.7999 18.4579 11.7997L18.4572 11.798L18.4555 11.7941L18.4496 11.781C18.4447 11.7699 18.4376 11.7542 18.4283 11.7342C18.4098 11.6942 18.3828 11.6369 18.3475 11.5648C18.2767 11.4207 18.1722 11.2169 18.0348 10.9732C17.7608 10.4871 17.3531 9.83657 16.8186 9.18338C15.7647 7.8952 14.1367 6.5 11.9998 6.5C9.86298 6.5 8.235 7.8952 7.18103 9.18338C6.6466 9.83657 6.23881 10.4871 5.96482 10.9732C5.8275 11.2169 5.72296 11.4207 5.6522 11.5648C5.6168 11.6369 5.5898 11.6942 5.57133 11.7342C5.56209 11.7542 5.55498 11.7699 5.55001 11.781L5.54417 11.7941L5.54246 11.798L5.54191 11.7992C5.54183 11.7994 5.54155 11.8 5.99982 12L5.54191 11.7992C5.48627 11.9267 5.48591 12.0725 5.54155 12.2L5.99982 12C5.54155 12.2 5.54148 12.1998 5.54155 12.2L5.54246 12.202L5.54417 12.2059L5.55001 12.219C5.55498 12.2301 5.56209 12.2458 5.57133 12.2658C5.5898 12.3058 5.6168 12.3631 5.6522 12.4352C5.72296 12.5793 5.8275 12.7831 5.96482 13.0268C6.23881 13.5129 6.6466 14.1634 7.18103 14.8166C8.235 16.1048 9.86298 17.5 11.9998 17.5C14.1367 17.5 15.7647 16.1048 16.8186 14.8166C17.3531 14.1634 17.7608 13.5129 18.0348 13.0268C18.1722 12.7831 18.2767 12.5793 18.3475 12.4352C18.3828 12.3631 18.4098 12.3058 18.4283 12.2658C18.4376 12.2458 18.4447 12.2301 18.4496 12.219L18.4555 12.2059L18.4572 12.202L18.4577 12.2008C18.4578 12.2006 18.4581 12.2 17.9998 12ZM17.9998 12L18.4577 12.2008C18.5134 12.0733 18.5136 11.9272 18.4579 11.7997L17.9998 12Z" fill="#212121"/>
<path fill-rule="evenodd" clip-rule="evenodd" d="M11.9998 10.5C11.1714 10.5 10.4998 11.1716 10.4998 12C10.4998 12.8284 11.1714 13.5 11.9998 13.5C12.8283 13.5 13.4998 12.8284 13.4998 12C13.4998 11.1716 12.8283 10.5 11.9998 10.5ZM9.49982 12C9.49982 10.6193 10.6191 9.5 11.9998 9.5C13.3805 9.5 14.4998 10.6193 14.4998 12C14.4998 13.3807 13.3805 14.5 11.9998 14.5C10.6191 14.5 9.49982 13.3807 9.49982 12Z" fill="#212121"/>
</g>
</g>
</svg>
